<?xml version="1.0" encoding="UTF-8" standalone="no"?>
<svg width="48px" height="48px" viewBox="0 0 48 48" version="1.1" xmlns="http://www.w3.org/2000/svg" xmlns:xlink="http://www.w3.org/1999/xlink">
    <!-- Generator: Sketch 3.8.1 (29687) - http://www.bohemiancoding.com/sketch -->
    <title>48*48</title>
    <desc>Created with Sketch.</desc>
    <defs></defs>
    <g id="进货团ui-kit" stroke="none" stroke-width="1" fill="none" fill-rule="evenodd">
        <g id="48*48">
            <g id="时间-icon">
                <path d="M24,0.905660377 C11.2451321,0.905660377 0.905660377,11.2451321 0.905660377,24 C0.905660377,36.7548679 11.2451321,47.0943396 24,47.0943396 C36.7548679,47.0943396 47.0943396,36.7548679 47.0943396,24 C47.0943396,11.2451321 36.7548679,0.905660377 24,0.905660377" id="Fill-1" fill="#FFFFFF"></path>
                <path d="M24,4.98113208 C13.4961509,4.98113208 4.98113208,13.4961509 4.98113208,24 C4.98113208,34.5038491 13.4961509,43.0188679 24,43.0188679 C34.5038491,43.0188679 43.0188679,34.5038491 43.0188679,24 C43.0188679,13.4961509 34.5038491,4.98113208 24,4.98113208" id="Fill-3" fill="#FFC868"></path>
                <path d="M32.2058717,30.2846491 L32.2058717,30.2846491 L27.335683,25.4144604 C27.5204377,24.9797434 27.6227774,24.5020075 27.6227774,23.9998189 C27.6227774,22.4801208 26.6854189,21.1809509 25.3586264,20.6429887 L25.3586264,9.50925283 C25.3586264,8.75936604 24.7504755,8.15076226 24.0001358,8.15076226 C23.2497962,8.15076226 22.6416453,8.75936604 22.6416453,9.50925283 L22.6416453,20.6429887 C21.3144,21.1809509 20.3774943,22.4801208 20.3774943,23.9998189 C20.3774943,26.0008755 21.9990792,27.6224604 24.0001358,27.6224604 C24.5018717,27.6224604 24.9800604,27.5201208 25.4147774,27.3358189 L30.2845132,32.2060075 C30.5304,32.4518943 30.8700226,32.6035925 31.2454189,32.6035925 C31.9957585,32.6035925 32.6039094,31.9954415 32.6039094,31.2451019 C32.6039094,30.8701585 32.4517585,30.5305358 32.2058717,30.2846491" id="Fill-5" fill="#171C1F"></path>
                <path d="M24.4528302,23.22 L24.4528302,9.50966038 C24.4528302,9.25924528 24.2499623,9.05683019 24,9.05683019 C23.7500377,9.05683019 23.5471698,9.25924528 23.5471698,9.50966038 L23.5471698,23.22 C23.2777358,23.3766792 23.0943396,23.6655849 23.0943396,24.0002264 C23.0943396,24.5001509 23.4996226,24.9058868 24,24.9058868 C24.5003774,24.9058868 24.9056604,24.5001509 24.9056604,24.0002264 C24.9056604,23.6655849 24.7222642,23.3766792 24.4528302,23.22" id="Fill-7" fill="#FFFFFF"></path>
                <path d="M31.5654792,30.9251321 L24.3201962,23.6798491 C24.238234,23.5978868 24.1250264,23.5471698 24.0000453,23.5471698 C23.750083,23.5471698 23.5472151,23.7500377 23.5472151,24 C23.5472151,24.1249811 23.5979321,24.2381887 23.6798943,24.3201509 L23.6798943,24.3201509 L30.9251774,31.565434 L30.9251774,31.565434 C31.0071396,31.6473962 31.1203472,31.6981132 31.2453283,31.6981132 C31.4952906,31.6981132 31.6981585,31.4952453 31.6981585,31.245283 C31.6981585,31.1203019 31.6474415,31.0070943 31.5654792,30.9251321" id="Fill-9" fill="#FF7575"></path>
                <path d="M46.1772226,23.5471698 C45.9354113,35.592 36.1026566,45.2830189 23.9998642,45.2830189 C11.8975245,45.2830189 2.06476981,35.592 1.82295849,23.5471698 C1.81978868,23.6984151 1.81118491,23.8483019 1.81118491,24 C1.81118491,36.2544906 11.7453736,46.1886792 23.9998642,46.1886792 C36.2543547,46.1886792 46.1885434,36.2544906 46.1885434,24 C46.1885434,23.8483019 46.1803925,23.6984151 46.1772226,23.5471698 M23.9998642,7.24528302 C33.9499019,7.24528302 42.0705057,15.0729057 42.5432604,24.9056604 C42.5577509,24.605434 42.5659019,24.3038491 42.5659019,24 C42.5659019,13.7461132 34.2537509,5.43396226 23.9998642,5.43396226 C13.7464302,5.43396226 5.43382642,13.7461132 5.43382642,24 C5.43382642,24.3038491 5.44243019,24.605434 5.45692075,24.9056604 C5.92922264,15.0729057 14.0498264,7.24528302 23.9998642,7.24528302 M30.2846943,32.2057358 L25.4054491,27.3264906 C24.9720906,27.5107925 24.5006943,27.6226415 23.9998642,27.6226415 C22.3126189,27.6226415 20.898883,26.4670189 20.4958642,24.9056604 C20.4211472,25.1954717 20.3772226,25.4979623 20.3772226,25.8113208 C20.3772226,27.8119245 21.9992604,29.4339623 23.9998642,29.4339623 C24.5020528,29.4339623 24.9797887,29.3316226 25.4145057,29.1473208 L30.2846943,34.0170566 C30.5305811,34.2629434 30.8702038,34.4150943 31.2451472,34.4150943 C31.9954868,34.4150943 32.6036377,33.8069434 32.6036377,33.0566038 C32.6036377,32.7070189 32.4682415,32.3913962 32.2513358,32.1509434 C32.0027321,32.4271698 31.6459019,32.6037736 31.2451472,32.6037736 C30.8702038,32.6037736 30.5305811,32.4516226 30.2846943,32.2057358" id="Fill-11" fill-opacity="0.4" fill="#000000"></path>
                <path d="M31.1846038,35.5385208 C31.0596226,35.3220679 30.7824906,35.2478038 30.5660377,35.3727849 C30.3495849,35.497766 30.2753208,35.7748981 30.4003019,35.9913509 L30.8531321,36.7756528 C30.9781132,36.9921057 31.2552453,37.0663698 31.4716981,36.9413887 C31.6881509,36.8164075 31.7624151,36.5392755 31.637434,36.3228226 L31.1846038,35.5385208 Z M36.7756981,30.8530868 L35.9913962,30.4002566 C35.7744906,30.2752755 35.4978113,30.3495396 35.3728302,30.5659925 C35.2478491,30.7824453 35.3216604,31.0595774 35.538566,31.1845585 L36.3228679,31.6373887 C36.5393208,31.7623698 36.8164528,31.6881057 36.941434,31.4716528 C37.0664151,31.2552 36.9921509,30.9780679 36.7756981,30.8530868 L36.7756981,30.8530868 Z M38.490566,23.5471245 L37.5849057,23.5471245 C37.3349434,23.5471245 37.1320755,23.7499925 37.1320755,23.9999547 C37.1320755,24.249917 37.3349434,24.4527849 37.5849057,24.4527849 L38.490566,24.4527849 C38.7405283,24.4527849 38.9433962,24.249917 38.9433962,23.9999547 C38.9433962,23.7499925 38.7405283,23.5471245 38.490566,23.5471245 L38.490566,23.5471245 Z M36.3228679,16.3625208 L35.538566,16.8153509 C35.3216604,16.9403321 35.2478491,17.2174642 35.3728302,17.433917 C35.4978113,17.6503698 35.7744906,17.724634 35.9913962,17.5996528 L36.7756981,17.1468226 C36.9921509,17.0218415 37.0664151,16.7451623 36.941434,16.5282566 C36.8164528,16.3118038 36.5393208,16.2375396 36.3228679,16.3625208 L36.3228679,16.3625208 Z M24,37.1320302 C23.7500377,37.1320302 23.5471698,37.3348981 23.5471698,37.5848604 L23.5471698,38.4905208 C23.5471698,38.740483 23.7500377,38.9433509 24,38.9433509 C24.2499623,38.9433509 24.4528302,38.740483 24.4528302,38.4905208 L24.4528302,37.5848604 C24.4528302,37.3348981 24.2499623,37.1320302 24,37.1320302 L24,37.1320302 Z M31.4716981,11.0585208 C31.2552453,10.9335396 30.9781132,11.0078038 30.8531321,11.2242566 L30.4003019,12.0085585 C30.2753208,12.2254642 30.3495849,12.5021434 30.5660377,12.6271245 C30.7824906,12.7525585 31.0596226,12.6782943 31.1846038,12.4613887 L31.637434,11.6770868 C31.7624151,11.460634 31.6881509,11.1835019 31.4716981,11.0585208 L31.4716981,11.0585208 Z M12.461434,16.8153509 L11.6771321,16.3625208 C11.4606792,16.2375396 11.1835472,16.3118038 11.058566,16.5282566 C10.9335849,16.7451623 11.0078491,17.0218415 11.2243019,17.1468226 L12.0086038,17.5996528 C12.2250566,17.724634 12.5021887,17.6503698 12.6271698,17.433917 C12.7521509,17.2174642 12.6778868,16.9403321 12.461434,16.8153509 L12.461434,16.8153509 Z M12.0086038,30.4002566 L11.2243019,30.8530868 C11.0078491,30.9780679 10.9335849,31.2552 11.058566,31.4716528 C11.1835472,31.6881057 11.4606792,31.7623698 11.6771321,31.6373887 L12.461434,31.1845585 C12.6778868,31.0595774 12.7521509,30.7824453 12.6271698,30.5659925 C12.5021887,30.3495396 12.2250566,30.2752755 12.0086038,30.4002566 L12.0086038,30.4002566 Z M17.4339623,35.3727849 C17.2175094,35.2478038 16.9403774,35.3220679 16.8153962,35.5385208 L16.362566,36.3228226 C16.2375849,36.5392755 16.3118491,36.8164075 16.5283019,36.9413887 C16.7447547,37.0663698 17.0218868,36.9921057 17.1468679,36.7756528 L17.5996981,35.9913509 C17.7246792,35.7748981 17.6504151,35.497766 17.4339623,35.3727849 L17.4339623,35.3727849 Z M17.1468679,11.2242566 C17.0218868,11.0078038 16.7447547,10.9335396 16.5283019,11.0585208 C16.3118491,11.1835019 16.2375849,11.460634 16.362566,11.6770868 L16.8153962,12.4613887 C16.9403774,12.6782943 17.2175094,12.7525585 17.4339623,12.6271245 C17.6504151,12.5021434 17.7246792,12.2254642 17.5996981,12.0085585 L17.1468679,11.2242566 Z M10.4150943,23.5471245 L9.50943396,23.5471245 C9.2594717,23.5471245 9.05660377,23.7499925 9.05660377,23.9999547 C9.05660377,24.249917 9.2594717,24.4527849 9.50943396,24.4527849 L10.4150943,24.4527849 C10.6650566,24.4527849 10.8679245,24.249917 10.8679245,23.9999547 C10.8679245,23.7499925 10.6650566,23.5471245 10.4150943,23.5471245 L10.4150943,23.5471245 Z" id="Fill-13" fill="#171C1F"></path>
                <path d="M24,42.5660377 C13.7461132,42.5660377 5.43396226,34.2538868 5.43396226,24 C5.43396226,13.7461132 13.7461132,5.43396226 24,5.43396226 C34.2538868,5.43396226 42.5660377,13.7461132 42.5660377,24 C42.5660377,34.2538868 34.2538868,42.5660377 24,42.5660377 M24,4.52830189 C13.2461887,4.52830189 4.52830189,13.2461887 4.52830189,24 C4.52830189,34.7538113 13.2461887,43.4716981 24,43.4716981 C34.7538113,43.4716981 43.4716981,34.7538113 43.4716981,24 C43.4716981,13.2461887 34.7538113,4.52830189 24,4.52830189 M24,46.1886792 C11.7455094,46.1886792 1.81132075,36.2544906 1.81132075,24 C1.81132075,11.7455094 11.7455094,1.81132075 24,1.81132075 C36.2544906,1.81132075 46.1886792,11.7455094 46.1886792,24 C46.1886792,36.2544906 36.2544906,46.1886792 24,46.1886792 M24,0 C10.7452075,0 0,10.7452075 0,24 C0,37.2547925 10.7452075,48 24,48 C37.2547925,48 48,37.2547925 48,24 C48,10.7452075 37.2547925,0 24,0" id="Fill-15" fill="#171C1F"></path>
            </g>
        </g>
    </g>
</svg>