<?xml version="1.0" encoding="UTF-8" standalone="no"?>
<svg width="48px" height="48px" viewBox="0 0 48 48" version="1.1" xmlns="http://www.w3.org/2000/svg" xmlns:xlink="http://www.w3.org/1999/xlink">
    <!-- Generator: Sketch 3.8.1 (29687) - http://www.bohemiancoding.com/sketch -->
    <title>48*48 copy</title>
    <desc>Created with Sketch.</desc>
    <defs></defs>
    <g id="进货团ui-kit" stroke="none" stroke-width="1" fill="none" fill-rule="evenodd">
        <g id="48*48-copy">
            <g id="订单-icon" transform="translate(1.000000, 1.000000)">
                <path d="M3.47169811,7.81132075 C2.51307547,7.81132075 1.73584906,8.58854717 1.73584906,9.54716981 L1.73584906,42.5283019 C1.73584906,43.4869245 2.51307547,44.2641509 3.47169811,44.2641509 L31.245283,44.2641509 C32.2039057,44.2641509 32.9811321,43.4869245 32.9811321,42.5283019 L32.9811321,9.54716981 C32.9811321,8.58854717 32.2039057,7.81132075 31.245283,7.81132075 L3.47169811,7.81132075 Z" id="Fill-1" fill="#FFFCD2"></path>
                <polygon id="Fill-3" fill="#7ECCFF" points="36.8867925 4.33966604 16.490566 24.7358925 21.2641509 29.5094774 41.6603774 9.11325094"></polygon>
                <polygon id="Fill-5" fill="#FF7575" points="39.9245283 1.30188679 36.8867925 4.33962264 41.6603774 9.11320755 44.6981132 6.0754717"></polygon>
                <path d="M37.1936472,4.03276792 L36.5800245,4.64639057 L41.3536094,9.41997547 L41.9672321,8.80635283 L37.1936472,4.03276792 Z M15.7498358,24.6086547 L21.3913453,30.2501642 L22.0049679,29.6365415 L16.3634585,23.9950321 L15.7498358,24.6086547 Z" id="Fill-7" fill="#171C1F"></path>
                <path d="M5.20754717,36.4528302 L29.509434,36.4528302 L29.509434,35.5849057 L5.20754717,35.5849057 L5.20754717,36.4528302 Z M5.20754717,39.9245283 L22.5660377,39.9245283 L22.5660377,39.0566038 L5.20754717,39.0566038 L5.20754717,39.9245283 Z M25.1698113,26.0377358 L29.509434,26.0377358 L29.509434,25.1698113 L26.0377358,25.1698113 L25.1698113,26.0377358 Z M38.0615283,3.59884906 L37.4479057,4.2124717 L41.7875283,8.55209434 L42.4011509,7.9384717 L38.0615283,3.59884906 Z M14.237,28.6415094 L5.20754717,28.6415094 L5.20754717,29.509434 L13.8898302,29.509434 L14.237,28.6415094 Z M22.4388868,28.7686604 L17.2313396,23.5611132 L16.617717,24.1747358 L21.8252642,29.382283 L22.057434,29.1505472 L21.6981132,29.509434 L29.509434,29.509434 L29.509434,28.6415094 L22.5660377,28.6415094 L22.4388868,28.7686604 Z M12.8483208,32.1132075 L5.20754717,32.1132075 L5.20754717,32.9811321 L12.5011509,32.9811321 L12.8483208,32.1132075 Z M26.0373019,14.754717 L5.20754717,14.754717 L5.20754717,15.6226415 L25.1693774,15.6226415 L26.0373019,14.754717 Z M5.20754717,12.1509434 L15.6226415,12.1509434 L15.6226415,11.2830189 L5.20754717,11.2830189 L5.20754717,12.1509434 Z M22.5656038,18.2264151 L5.20754717,18.2264151 L5.20754717,19.0943396 L21.6981132,19.0943396 L22.5656038,18.2264151 Z M15.3032453,25.9761132 L15.3722453,25.9969434 L15.6200377,25.1923774 C15.6230755,25.1884717 15.628283,25.1828302 15.6356604,25.1750189 L15.6408679,25.1698113 L5.20754717,25.1698113 L5.20754717,26.0377358 L15.2785094,26.0377358 L15.3032453,25.9761132 Z M26.0377358,32.9811321 L26.0377358,32.1132075 L16.4827547,32.1132075 L14.3129434,32.9811321 L26.0377358,32.9811321 Z M18.6603774,22.1320755 L18.6603774,21.6981132 L5.20754717,21.6981132 L5.20754717,22.5660377 L18.2264151,22.5660377 L18.6603774,22.1320755 Z" id="Fill-9" fill="#171C1F"></path>
                <path d="M21.4346547,30.9818245 C21.3357113,31.079466 21.2207113,31.1610509 21.0844472,31.2031453 L21.0853151,31.2070509 L12.4407868,34.6648623 C12.4347113,34.6670321 12.4290698,34.6700698 12.4225604,34.6718057 L12.4060698,34.6787491 L12.4052019,34.6748434 C12.3244849,34.7000132 12.2398623,34.7169377 12.1509,34.7169377 C11.9573528,34.7169377 11.7802962,34.6514094 11.6357868,34.5437868 L11.3632585,35.2246736 C11.3545792,35.2437679 11.3476358,35.2632962 11.3402585,35.2828245 L11.3215981,35.3296925 L11.3250698,35.3309943 C11.300334,35.4117113 11.2829755,35.4959 11.2829755,35.5848623 C11.2829755,36.0643906 11.6718057,36.4527868 12.1509,36.4527868 C12.2398623,36.4527868 12.3244849,36.4358623 12.4052019,36.4106925 L12.4060698,36.4145981 L12.4225604,36.4076547 C12.4290698,36.4059189 12.4347113,36.4028811 12.4407868,36.4007113 L21.0853151,32.9429 L21.0844472,32.9389943 C21.2207113,32.8969 21.3357113,32.8153151 21.4346547,32.7176736 L21.4437679,32.7267868 L32.9810887,21.1899 L32.9810887,19.453617 L21.4437679,30.9909377 L21.4346547,30.9818245 Z M15.6225981,31.528617 L20.3371642,29.6430509 L43.9047868,6.0754283 L43.2538434,5.42448491 L20.3371642,28.3411642 L15.6225981,30.2267302 L15.6225981,29.0754283 L14.9920509,29.0754283 L14.4712962,30.3773151 L15.6225981,30.3773151 L15.6225981,31.528617 Z M31.2452396,43.396183 L3.47165472,43.396183 C2.51303208,43.396183 1.73580566,42.6189566 1.73580566,41.660334 L1.73580566,42.5282585 C1.73580566,43.4868811 2.51303208,44.2641075 3.47165472,44.2641075 L31.2452396,44.2641075 C32.2038623,44.2641075 32.9810887,43.4868811 32.9810887,42.5282585 L32.9810887,41.660334 C32.9810887,42.6189566 32.2038623,43.396183 31.2452396,43.396183 L31.2452396,43.396183 Z" id="Fill-11" fill-opacity="0.4" fill="#000000"></path>
                <path d="M20.3372075,29.6429208 L15.6226415,31.5289208 L15.6226415,30.3776189 L14.4713396,30.3776189 L16.3569057,25.6630528 L39.9245283,2.09543019 L43.9043962,6.07529811 L20.3372075,29.6429208 Z M32.9811321,42.5281283 C32.9811321,43.4871849 32.2039057,44.2639774 31.245283,44.2639774 L3.47169811,44.2639774 C2.51307547,44.2639774 1.73584906,43.4871849 1.73584906,42.5281283 L1.73584906,9.54699623 C1.73584906,8.58837358 2.51307547,7.81114717 3.47169811,7.81114717 L31.245283,7.81114717 C31.3997736,7.81114717 31.5468868,7.83805283 31.6892264,7.87580755 L15.0090189,24.5560151 L15.0181321,24.5651283 C14.9204906,24.6640717 14.8389057,24.7795057 14.7968113,24.9157698 L14.7929057,24.9144679 L11.3633019,33.4886943 C11.3546226,33.5077887 11.3472453,33.527317 11.3398679,33.5472792 L11.3212075,33.5937132 L11.3251132,33.5950151 C11.3003774,33.6757321 11.2830189,33.7599208 11.2830189,33.848883 C11.2830189,34.3284113 11.6714151,34.7168075 12.1509434,34.7168075 C12.2399057,34.7168075 12.3245283,34.699883 12.4052453,34.6751472 L12.4061132,34.6786189 L12.4226038,34.6721094 C12.4291132,34.6699396 12.4347547,34.6669019 12.4408302,34.6647321 L21.0853585,31.2069208 L21.0840566,31.2030151 C21.2207547,31.1609208 21.3357547,31.0793358 21.4346981,30.9816943 L21.4438113,30.9912415 L32.9811321,19.4539208 L32.9811321,42.5281283 Z M45.7456981,5.46167547 L45.7456981,5.46167547 L40.5381509,0.254128302 C40.3810566,0.0970339623 40.1640755,0.000260377358 39.9245283,0.000260377358 C39.6849811,0.000260377358 39.468,0.0970339623 39.3109057,0.254562264 L33.0063019,6.55873208 C32.4894528,6.2536566 31.8888491,6.07529811 31.245283,6.07529811 L3.47169811,6.07529811 C1.55445283,6.07529811 0,7.62975094 0,9.54699623 L0,42.5281283 C0,44.4458075 1.55445283,45.9998264 3.47169811,45.9998264 L31.245283,45.9998264 C33.1625283,45.9998264 34.7169811,44.4458075 34.7169811,42.5281283 L34.7169811,17.7180717 L45.7456981,6.68935472 C45.9027925,6.53226038 46,6.31527925 46,6.07529811 C46,5.83575094 45.9027925,5.61876981 45.7456981,5.46167547 L45.7456981,5.46167547 Z" id="Fill-13" fill="#171C1F"></path>
            </g>
        </g>
    </g>
</svg>