<?xml version="1.0" encoding="UTF-8" standalone="no"?>
<svg width="48px" height="48px" viewBox="0 0 48 48" version="1.1" xmlns="http://www.w3.org/2000/svg" xmlns:xlink="http://www.w3.org/1999/xlink">
    <!-- Generator: Sketch 3.8.1 (29687) - http://www.bohemiancoding.com/sketch -->
    <title>48*48 －reward</title>
    <desc>Created with Sketch.</desc>
    <defs></defs>
    <g id="进货团ui-kit" stroke="none" stroke-width="1" fill="none" fill-rule="evenodd">
        <g id="48*48-－reward">
            <g id="奖励-icon">
                <path d="M24,0.905660377 C11.2451321,0.905660377 0.905660377,11.2451321 0.905660377,24 C0.905660377,36.7544151 11.2451321,47.0943396 24,47.0943396 C36.7548679,47.0943396 47.0943396,36.7544151 47.0943396,24 C47.0943396,11.2451321 36.7548679,0.905660377 24,0.905660377" id="Fill-1" fill="#FFED00"></path>
                <path d="M35.8212226,21.5063547 C36.1934491,21.1237132 36.3193358,20.5712604 36.1495245,20.0645434 C35.9797132,19.5582792 35.5468075,19.1937509 35.0197132,19.1131472 L28.5179774,18.1169208 L28.2793358,18.0802415 L28.1769962,17.8615245 L25.2838642,11.6853736 C25.0483925,11.1809208 24.5566189,10.8680151 24.0000906,10.8680151 C23.4440151,10.8680151 22.9522415,11.1809208 22.7167698,11.6844679 L19.8236377,17.8615245 L19.7212981,18.0802415 L19.4822038,18.1169208 L12.9809208,19.1131472 C12.4538264,19.1937509 12.0209208,19.5582792 11.8511094,20.0645434 C11.6812981,20.5708075 11.8071849,21.1237132 12.1794113,21.5063547 L16.9427321,26.3987321 L17.1021283,26.5622038 L17.0654491,26.7872604 L15.9437887,33.6748075 C15.8772226,34.0855245 15.9936,34.5025811 16.2625811,34.8186566 C16.5338264,35.1379019 16.9277887,35.3208453 17.3439396,35.3208453 C17.5821283,35.3208453 17.8198642,35.2588075 18.0313358,35.1419774 L23.7809208,31.9558642 L24.0000906,31.8345057 L24.2197132,31.9558642 L29.967034,35.1410717 C30.1798642,35.2583547 30.4185057,35.3208453 30.6566943,35.3208453 C31.0728453,35.3208453 31.4668075,35.1379019 31.7376,34.8191094 C32.007034,34.5025811 32.1234113,34.0846189 32.0568453,33.6711849 L30.9351849,26.7872604 L30.8985057,26.5622038 L31.0579019,26.3987321 L35.8212226,21.5063547 Z" id="Fill-3" fill="#FFFFFF"></path>
                <path d="M35.4944604,21.1903698 L30.7306868,26.0827472 L30.4123472,26.4096906 L30.4857057,26.8602566 L31.607366,33.7432755 C31.6526491,34.0253887 31.5738566,34.3102189 31.3904604,34.525766 C31.2057057,34.7431245 30.9371774,34.8681057 30.6537057,34.8681057 C30.4920453,34.8681057 30.3290264,34.8250868 30.1836679,34.7449358 L24.4363472,31.5597283 L23.9975547,31.3170113 L23.5592151,31.5597283 L17.8096302,34.7458415 C17.6651774,34.8255396 17.5030642,34.8681057 17.3414038,34.8681057 C17.0583849,34.8681057 16.7898566,34.7431245 16.6046491,34.5253132 C16.4217057,34.3102189 16.3424604,34.0267472 16.3877434,33.7473509 L17.5094038,26.8602566 L17.5827623,26.4096906 L17.2644226,26.0827472 L12.5011019,21.1908226 C12.247517,20.9299925 12.1619321,20.5536906 12.2774038,20.208634 C12.3928755,19.8640302 12.6876679,19.6158792 13.0467623,19.560634 L19.5480453,18.5644075 L20.0257811,18.4915019 L20.2309132,18.0536151 L23.1240453,11.8761057 C23.2866113,11.5283321 23.6131019,11.3209358 23.9975547,11.3209358 C24.3820075,11.3209358 24.7084981,11.5287849 24.871517,11.8774642 L27.7646491,18.0536151 L27.9693283,18.4915019 L28.4470642,18.5644075 L34.9488,19.560634 C35.3074415,19.6158792 35.602234,19.8640302 35.7177057,20.2081811 C35.8336302,20.5536906 35.7480453,20.9299925 35.4944604,21.1903698 M36.5758189,19.9201811 C36.3521208,19.2522566 35.7811019,18.7718038 35.0855547,18.6653887 L28.5842717,17.6691623 L25.6911396,11.4930113 C25.3804981,10.8282566 24.7315925,10.4152755 23.9975547,10.4152755 C23.263517,10.4152755 22.6150642,10.8282566 22.3044226,11.4925585 L19.4112906,17.6691623 L12.9095547,18.6653887 C12.2140075,18.7718038 11.6434415,19.2522566 11.4192906,19.9201811 C11.1951396,20.5885585 11.3613283,21.3171623 11.8526491,21.8225208 L16.6159698,26.7144453 L15.4947623,33.6019925 C15.4064604,34.1440302 15.5599698,34.6951245 15.9154415,35.1121811 C16.2731774,35.5333132 16.7930264,35.773766 17.3414038,35.773766 C17.6570264,35.773766 17.9703849,35.6918038 18.247517,35.5382943 L23.9975547,32.3521811 L29.7453283,35.5369358 C30.0251774,35.6918038 30.338083,35.773766 30.6537057,35.773766 C31.202083,35.773766 31.7223849,35.5333132 32.0801208,35.1121811 C32.4351396,34.6951245 32.5886491,34.1440302 32.5008,33.5992755 L31.3791396,26.7144453 L36.1429132,21.8225208 C36.634234,21.3171623 36.7999698,20.5885585 36.5758189,19.9201811" id="Fill-5" fill="#171C1F"></path>
                <path d="M24,43.4716981 C13.2461887,43.4716981 4.52830189,34.7538113 4.52830189,24 C4.52830189,13.2461887 13.2461887,4.52830189 24,4.52830189 C34.7538113,4.52830189 43.4716981,13.2461887 43.4716981,24 C43.4716981,34.7538113 34.7538113,43.4716981 24,43.4716981 M24,3.62264151 C12.7458113,3.62264151 3.62264151,12.7458113 3.62264151,24 C3.62264151,35.2541887 12.7458113,44.3773585 24,44.3773585 C35.2541887,44.3773585 44.3773585,35.2541887 44.3773585,24 C44.3773585,12.7458113 35.2541887,3.62264151 24,3.62264151" id="Fill-7" fill="#171C1F"></path>
                <path d="M16.3634264,28.2663849 L16.6161057,26.7145358 L11.8523321,21.8226113 C11.7382189,21.7048755 11.6440302,21.5749132 11.5656906,21.4368 C11.5131623,21.5328 11.4552,21.6251774 11.4194264,21.7315925 C11.1952755,22.3999698 11.3614642,23.1285736 11.8523321,23.6339321 L16.3634264,28.2663849 Z M16.6043321,33.6192906 C16.5373132,33.5409509 16.489766,33.4508377 16.4517283,33.3571019 L16.3878792,33.7474415 C16.3425962,34.0263849 16.4213887,34.3103094 16.6043321,34.5249509 C16.7899925,34.7432151 17.0585208,34.8677434 17.3415396,34.8677434 C17.5032,34.8677434 17.6653132,34.8256302 17.809766,34.7454792 L23.5593509,31.5598189 L23.9976906,31.3171019 L24.4360302,31.5598189 L30.1838038,34.7445736 C30.3291623,34.8251774 30.4921811,34.8677434 30.6538415,34.8677434 C30.9373132,34.8677434 31.2053887,34.7432151 31.3905962,34.5258566 C31.5739925,34.3103094 31.6527849,34.0254792 31.6075019,33.743366 L31.5441057,33.3557434 C31.5060679,33.4503849 31.4576151,33.5409509 31.3905962,33.6201962 C31.2053887,33.8375547 30.9373132,33.962083 30.6538415,33.962083 C30.4921811,33.962083 30.3291623,33.919517 30.1838038,33.8389132 L24.4360302,30.6541585 L23.9976906,30.4114415 L23.5593509,30.6541585 L17.809766,33.8398189 C17.6653132,33.9199698 17.5032,33.962083 17.3415396,33.962083 C17.0585208,33.962083 16.7899925,33.8375547 16.6043321,33.6192906 L16.6043321,33.6192906 Z M46.1773132,23.5469887 C45.9350491,35.5918189 36.1027472,45.2828377 23.9999547,45.2828377 C11.8976151,45.2828377 2.06486038,35.5918189 1.82259623,23.5469887 C1.81987925,23.698234 1.81127547,23.8481208 1.81127547,23.9998189 C1.81127547,36.2543094 11.7454642,46.1884981 23.9999547,46.1884981 C36.2544453,46.1884981 46.188634,36.2543094 46.188634,23.9998189 C46.188634,23.8481208 46.180483,23.698234 46.1773132,23.5469887 L46.1773132,23.5469887 Z M17.2645585,26.0823849 L17.4565585,26.2798189 L17.5095396,25.9546868 L17.5828981,25.5041208 L17.2645585,25.1767245 L12.5012377,20.2852528 C12.4387472,20.2204981 12.3866717,20.1489509 12.3450113,20.0728755 C12.3214642,20.1177057 12.2938415,20.1598189 12.2775396,20.2087245 C12.1616151,20.5533283 12.2476528,20.930083 12.5012377,21.1909132 L17.2645585,26.0823849 Z M31.6319547,28.2663849 L36.1425962,23.6339321 C36.6343698,23.1285736 36.8001057,22.3999698 36.5759547,21.7315925 C36.5401811,21.6251774 36.4822189,21.5328 36.4296906,21.4368 C36.3518038,21.5749132 36.2571623,21.7048755 36.1425962,21.8226113 L31.3792755,26.7145358 L31.6319547,28.2663849 Z M32.0798038,35.1122717 C31.7220679,35.5334038 31.2022189,35.7734038 30.6538415,35.7734038 C30.3382189,35.7734038 30.0248604,35.6918943 29.7454642,35.5370264 L23.9976906,32.3522717 L18.2476528,35.5383849 C17.9700679,35.6918943 17.6571623,35.7734038 17.3415396,35.7734038 C16.7931623,35.7734038 16.2733132,35.5334038 15.9155774,35.1122717 C15.7887849,34.9637434 15.697766,34.7939321 15.6239547,34.6177811 L15.4944453,35.4129509 C15.4065962,35.9554415 15.5601057,36.5065358 15.9155774,36.9235925 C16.2733132,37.3447245 16.7931623,37.5847245 17.3415396,37.5847245 C17.6571623,37.5847245 17.9700679,37.5032151 18.2476528,37.3497057 L23.9976906,34.1635925 L29.7454642,37.3483472 C30.0248604,37.5032151 30.3382189,37.5847245 30.6538415,37.5847245 C31.2022189,37.5847245 31.7220679,37.3447245 32.0798038,36.9235925 C32.4352755,36.5065358 32.5887849,35.9554415 32.5009358,35.4106868 L32.3714264,34.6168755 C32.2980679,34.7934792 32.2065962,34.9632906 32.0798038,35.1122717 L32.0798038,35.1122717 Z M30.5388226,26.2798189 L30.7308226,26.0823849 L35.4945962,21.1904604 C35.7477283,20.930083 35.833766,20.5533283 35.7178415,20.2082717 C35.7015396,20.159366 35.673917,20.1172528 35.6503698,20.0728755 C35.6087094,20.1489509 35.5570868,20.2204981 35.4945962,20.2848 L30.7308226,25.1767245 L30.412483,25.5041208 L30.4858415,25.9546868 L30.5388226,26.2798189 Z" id="Fill-9" fill-opacity="0.4" fill="#000000"></path>
                <path d="M24,46.1886792 C11.7455094,46.1886792 1.81132075,36.2544906 1.81132075,24 C1.81132075,11.7455094 11.7455094,1.81132075 24,1.81132075 C36.2544906,1.81132075 46.1886792,11.7455094 46.1886792,24 C46.1886792,36.2544906 36.2544906,46.1886792 24,46.1886792 M24,0 C10.7452075,0 0,10.7452075 0,24 C0,37.2547925 10.7452075,48 24,48 C37.2547925,48 48,37.2547925 48,24 C48,10.7452075 37.2547925,0 24,0" id="Fill-11" fill="#171C1F"></path>
            </g>
        </g>
    </g>
</svg>