<?xml version="1.0" encoding="UTF-8" standalone="no"?>
<svg width="44px" height="44px" viewBox="0 0 44 44" version="1.1" xmlns="http://www.w3.org/2000/svg" xmlns:xlink="http://www.w3.org/1999/xlink">
    <!-- Generator: Sketch 39.1 (31720) - http://www.bohemiancoding.com/sketch -->
    <title>我的任务icon copy</title>
    <desc>Created with Sketch.</desc>
    <defs>
        <linearGradient x1="50%" y1="0%" x2="50%" y2="71.0719023%" id="linearGradient-1">
            <stop stop-color="#68DCFF" offset="0%"></stop>
            <stop stop-color="#17A2FD" offset="100%"></stop>
        </linearGradient>
        <linearGradient x1="50%" y1="0%" x2="50%" y2="71.0719023%" id="linearGradient-2" offset="100%">
            <stop stop-color="#68DCFF"></stop>
            <stop stop-color="#17A2FD"></stop>
        </linearGradient>
    </defs>
    <g id="Page-1" stroke="none" stroke-width="1" fill="none" fill-rule="evenodd">
        <g id="我的任务icon-copy">
            <g transform="translate(0.000000, 2.000000)">
                <rect id="Mask" fill="url(#linearGradient-1)" x="0.906225374" y="9.17381432" width="42" height="32" rx="4"></rect>
                <polygon id="Rectangle-26" fill="#FFFFFF" points="0.906225374 22.1738143 42.9062254 22.1738143 42.9062254 26.1738143 7.54870605 26.1738143 0.906225374 26.1738143"></polygon>
                <rect id="Rectangle-27" stroke="#FFFFFF" stroke-width="3" fill="url(#linearGradient-1)" x="17.9062254" y="19.1738143" width="8" height="8" rx="2"></rect>
                <path d="M26.707387,3.22440997 L16.3257422,3.22440997 L16.3257422,9.52709541 L14.044008,9.52709541 L14.044008,3.72264163 C14.044008,1.90019162 15.2459331,0.423094239 16.727875,0.423094239 L26.19119,0.423094239 C27.6735792,0.423094239 28.8750569,1.90019162 28.8750569,3.72264163 L28.8750569,9.52709541 L26.707387,9.52709541 L26.707387,3.22440997 Z" id="Shape" fill="url(#linearGradient-2)"></path>
            </g>
        </g>
    </g>
</svg>