<?xml version="1.0" encoding="UTF-8" standalone="no"?>
<svg width="44px" height="44px" viewBox="0 0 44 44" version="1.1" xmlns="http://www.w3.org/2000/svg" xmlns:xlink="http://www.w3.org/1999/xlink">
    <!-- Generator: Sketch 39.1 (31720) - http://www.bohemiancoding.com/sketch -->
    <title>我的任务icon copy</title>
    <desc>Created with Sketch.</desc>
    <defs></defs>
    <g id="Page-1" stroke="none" stroke-width="1" fill="none" fill-rule="evenodd">
        <g id="我的任务icon-copy">
            <g id="订单" transform="translate(4.000000, 1.000000)">
                <rect id="Rectangle-path" fill="#B4CDE1" x="0" y="0" width="36" height="42" rx="6"></rect>
                <g id="Group-2" transform="translate(6.000000, 9.000000)" fill="#FFFFFF">
                    <path d="M22.4871238,1 C23.3226005,1 24,1.57341328 24,2.28063761 L24,2.71936239 C24,3.42658672 23.3226005,4 22.4871238,4 L9.51287616,4 C8.67688122,4 8,3.42658672 8,2.71936239 L8,2.28063761 C8,1.57341328 8.67688122,1 9.51287616,1 L22.4871238,1 Z" id="Shape"></path>
                    <path d="M4.14089347,2.22044605e-15 C4.61512027,2.22044605e-15 5,0.402046128 5,0.897424392 L5,4.10302432 C5,4.59840258 4.61512027,5 4.14089347,5 L0.859106529,5 C0.384450172,5 0,4.59840258 0,4.10302432 L0,0.897424392 C0,0.402046128 0.384450172,2.22044605e-15 0.859106529,2.22044605e-15 L4.14089347,2.22044605e-15 Z" id="Shape"></path>
                </g>
                <g id="Group-2" transform="translate(6.000000, 19.000000)" fill="#FFFFFF">
                    <path d="M22.4871238,1 C23.3226005,1 24,1.57341328 24,2.28063761 L24,2.71936239 C24,3.42658672 23.3226005,4 22.4871238,4 L9.51287616,4 C8.67688122,4 8,3.42658672 8,2.71936239 L8,2.28063761 C8,1.57341328 8.67688122,1 9.51287616,1 L22.4871238,1 Z" id="Shape"></path>
                    <path d="M4.14089347,2.22044605e-15 C4.61512027,2.22044605e-15 5,0.402046128 5,0.897424392 L5,4.10302432 C5,4.59840258 4.61512027,5 4.14089347,5 L0.859106529,5 C0.384450172,5 0,4.59840258 0,4.10302432 L0,0.897424392 C0,0.402046128 0.384450172,2.22044605e-15 0.859106529,2.22044605e-15 L4.14089347,2.22044605e-15 Z" id="Shape"></path>
                </g>
                <g id="Group-2" transform="translate(6.000000, 29.000000)" fill="#FFFFFF">
                    <path d="M22.4871238,1 C23.3226005,1 24,1.57341328 24,2.28063761 L24,2.71936239 C24,3.42658672 23.3226005,4 22.4871238,4 L9.51287616,4 C8.67688122,4 8,3.42658672 8,2.71936239 L8,2.28063761 C8,1.57341328 8.67688122,1 9.51287616,1 L22.4871238,1 Z" id="Shape"></path>
                    <path d="M4.14089347,2.22044605e-15 C4.61512027,2.22044605e-15 5,0.402046128 5,0.897424392 L5,4.10302432 C5,4.59840258 4.61512027,5 4.14089347,5 L0.859106529,5 C0.384450172,5 0,4.59840258 0,4.10302432 L0,0.897424392 C0,0.402046128 0.384450172,2.22044605e-15 0.859106529,2.22044605e-15 L4.14089347,2.22044605e-15 Z" id="Shape"></path>
                </g>
            </g>
        </g>
    </g>
</svg>