<?xml version="1.0" encoding="UTF-8" standalone="no"?>
<svg width="186px" height="36px" viewBox="0 0 186 36" version="1.1" xmlns="http://www.w3.org/2000/svg" xmlns:xlink="http://www.w3.org/1999/xlink">
    <!-- Generator: Sketch 39.1 (31720) - http://www.bohemiancoding.com/sketch -->
    <title>Combined Shape</title>
    <desc>Created with Sketch.</desc>
    <defs></defs>
    <g id="我的任务" stroke="none" stroke-width="1" fill="none" fill-rule="evenodd">
        <g id="无级别任务详情－进行中" transform="translate(-16.000000, -980.000000)" fill="#A0D7FC">
            <g id="订单列表" transform="translate(8.000000, 980.000000)">
                <g id="bg">
                    <path d="M80.9968697,24 L13.5027776,24 C10.469209,24 8,26.4661513 8,29.5083032 L8,30.4916968 C8,33.542664 10.4636775,36 13.5027776,36 L136.497222,36 C139.530791,36 142,33.5338487 142,30.4916968 L142,29.5083032 C142,26.457336 139.536323,24 136.497222,24 L114,24 L114,23.9177254 C111.162681,23.4427528 109,20.9687667 109,18 C109,15.0261583 111.170355,12.5576329 114,12.0825528 L114,12 L170.497222,12 C173.530791,12 176,9.53384867 176,6.49169683 L176,5.50830317 C176,2.45733601 173.536323,0 170.497222,0 L47.5027776,0 C44.469209,0 42,2.46615133 42,5.50830317 L42,6.49169683 C42,9.54266399 44.4636775,12 47.5027776,12 L80.9968697,12 L84.0062606,12 C87.3165115,12 90,14.6930342 90,18 C90,21.3137085 87.3052181,24 84.0062606,24 L80.9968697,24 Z M188,12 C191.313708,12 194,9.3137085 194,6 C194,2.6862915 191.313708,0 188,0 C184.686292,0 182,2.6862915 182,6 C182,9.3137085 184.686292,12 188,12 Z" id="Combined-Shape"></path>
                </g>
            </g>
        </g>
    </g>
</svg>