<?xml version="1.0" encoding="UTF-8" standalone="no"?>
<svg width="168px" height="36px" viewBox="0 0 168 36" version="1.1" xmlns="http://www.w3.org/2000/svg" xmlns:xlink="http://www.w3.org/1999/xlink">
    <!-- Generator: Sketch 39.1 (31720) - http://www.bohemiancoding.com/sketch -->
    <title>Combined Shape Copy</title>
    <desc>Created with Sketch.</desc>
    <defs></defs>
    <g id="我的任务" stroke="none" stroke-width="1" fill="none" fill-rule="evenodd">
        <g id="无级别任务详情－进行中" transform="translate(-456.000000, -779.000000)" fill="#A0D7FC">
            <g id="任务规则" transform="translate(8.000000, 779.000000)">
                <path d="M520.99687,24 L453.502778,24 C450.469209,24 448,26.4661513 448,29.5083032 L448,30.4916968 C448,33.542664 450.463677,36 453.502778,36 L576.497222,36 C579.530791,36 582,33.5338487 582,30.4916968 L582,29.5083032 C582,26.457336 579.536323,24 576.497222,24 L554,24 L554,23.9177254 C551.162681,23.4427528 549,20.9687667 549,18 C549,15.0261583 551.170355,12.5576329 554,12.0825528 L554,12 L610.497222,12 C613.530791,12 616,9.53384867 616,6.49169683 L616,5.50830317 C616,2.45733601 613.536323,0 610.497222,0 L487.502778,0 C484.469209,0 482,2.46615133 482,5.50830317 L482,6.49169683 C482,9.54266399 484.463677,12 487.502778,12 L520.99687,12 L524.006261,12 C527.316511,12 530,14.6930342 530,18 C530,21.3137085 527.305218,24 524.006261,24 L520.99687,24 Z" id="Combined-Shape-Copy" transform="translate(532.000000, 18.000000) scale(1, -1) translate(-532.000000, -18.000000) "></path>
            </g>
        </g>
    </g>
</svg>