<?xml version="1.0" encoding="UTF-8" standalone="no"?>
<svg width="31px" height="30px" viewBox="0 0 31 30" version="1.1" xmlns="http://www.w3.org/2000/svg" xmlns:xlink="http://www.w3.org/1999/xlink">
    <!-- Generator: Sketch 39.1 (31720) - http://www.bohemiancoding.com/sketch -->
    <title>Combined Shape</title>
    <desc>Created with Sketch.</desc>
    <defs></defs>
    <g id="我的任务" stroke="none" stroke-width="1" fill="none" fill-rule="evenodd">
        <g id="任务详情－进行中（弹窗）" transform="translate(-544.000000, -372.000000)" fill="#C0C0C0">
            <path d="M560.858724,385.846354 L560.858724,368.188463 C560.858724,367.628906 560.414157,367.179688 559.865756,367.179688 L559.185026,367.179688 C558.632403,367.179688 558.192057,367.631332 558.192057,368.188463 L558.192057,385.846354 L540.534166,385.846354 C539.974609,385.846354 539.525391,386.290921 539.525391,386.839322 L539.525391,387.520053 C539.525391,388.072675 539.977035,388.513021 540.534166,388.513021 L558.192057,388.513021 L558.192057,406.170912 C558.192057,406.730469 558.636624,407.179688 559.185026,407.179688 L559.865756,407.179688 C560.418378,407.179688 560.858724,406.728043 560.858724,406.170912 L560.858724,388.513021 L578.516615,388.513021 C579.076172,388.513021 579.525391,388.068454 579.525391,387.520053 L579.525391,386.839322 C579.525391,386.2867 579.073747,385.846354 578.516615,385.846354 L560.858724,385.846354 Z" id="Combined-Shape" transform="translate(559.525391, 387.179688) rotate(-315.000000) translate(-559.525391, -387.179688) "></path>
        </g>
    </g>
</svg>