<?xml version="1.0" encoding="UTF-8" standalone="no"?>
<svg width="29px" height="34px" viewBox="0 0 29 34" version="1.1" xmlns="http://www.w3.org/2000/svg" xmlns:xlink="http://www.w3.org/1999/xlink">
    <!-- Generator: Sketch 39.1 (31720) - http://www.bohemiancoding.com/sketch -->
    <title>iconfont-order</title>
    <desc>Created with Sketch.</desc>
    <defs></defs>
    <g id="我的任务" stroke="none" stroke-width="1" fill="none" fill-rule="evenodd">
        <g id="无级别任务详情－已达标" transform="translate(-32.000000, -1069.000000)" fill="#606060">
            <g id="订单列表" transform="translate(8.000000, 980.000000)">
                <g id="订单" transform="translate(18.000000, 85.000000)">
                    <g id="iconfont-order">
                        <path d="M31.5773095,4.05079865 L9.3896627,4.05079865 C7.52054365,4.05079865 6,5.57153638 6,7.43992555 L6,37.0181997 C6,37.5283147 6.41376786,37.9425279 6.92443254,37.9425279 C6.97616071,37.9425279 7.0267381,37.9371201 7.07616468,37.9290085 C7.12789286,37.9379831 7.18048413,37.9425279 7.23330556,37.9425279 C7.43331349,37.9425279 7.63493254,37.877577 7.80461706,37.744511 L11.6110397,34.7471607 L15.4171746,37.744511 C15.752746,38.0081117 16.2252044,38.0081117 16.5614663,37.744511 L20.5108175,34.6345753 L24.3387599,37.6487817 C24.6745615,37.9123824 25.1470198,37.9123824 25.4830516,37.6487817 L29.2860218,34.6539052 L33.162125,37.7058511 C33.3437202,37.8488122 33.5612778,37.9121523 33.7748075,37.9027174 C33.8595635,37.9283756 33.9492103,37.9425279 34.0424821,37.9425279 C34.5531468,37.9425279 34.9669722,37.5283147 34.9669722,37.0181997 L34.9669722,7.43992555 C34.9669722,5.57153638 33.4464286,4.05079865 31.5773095,4.05079865 L31.5773095,4.05079865 Z M28.71425,32.7508832 L24.9109921,35.7460474 L21.0830496,32.7317834 C20.747248,32.4681827 20.2747897,32.4681827 19.9387579,32.7317834 L15.9894067,35.8417766 L12.1830417,32.8443689 C11.8472401,32.5807682 11.3747817,32.5807682 11.0389802,32.8443689 L7.84915278,35.3561692 L7.84915278,7.43992555 C7.84915278,6.5902132 8.5402619,5.89939763 9.38989286,5.89939763 L31.5773095,5.89939763 C32.4268829,5.89939763 33.1180496,6.5902132 33.1180496,7.43992555 L33.1180496,35.3175093 L29.8583115,32.7508832 C29.5225099,32.4875127 29.0500516,32.4875127 28.71425,32.7508832 L28.71425,32.7508832 Z" id="Fill-1"></path>
                        <path d="M27.4957718,13.695313 L11.4714306,13.695313 C11.1309107,13.695313 10.855123,14.0608239 10.855123,14.5128088 C10.855123,14.9644884 11.1309107,15.3303046 11.4714306,15.3303046 L27.4957718,15.3303046 C27.8360615,15.3303046 28.1120794,14.9644884 28.1120794,14.5128088 C28.1120794,14.0608239 27.8360615,13.695313 27.4957718,13.695313 L27.4957718,13.695313 Z" id="Fill-2"></path>
                        <path d="M27.4957718,18.9842403 L11.4714306,18.9842403 C11.1309107,18.9842403 10.855123,19.3497512 10.855123,19.801736 C10.855123,20.2534156 11.1309107,20.6192318 11.4714306,20.6192318 L27.4957718,20.6192318 C27.8360615,20.6192318 28.1120794,20.2534156 28.1120794,19.801736 C28.1120794,19.3497512 27.8360615,18.9842403 27.4957718,18.9842403 L27.4957718,18.9842403 Z" id="Fill-3"></path>
                        <path d="M23.7976964,24.27311 L11.4714306,24.27311 C11.1309107,24.27311 10.855123,24.6386209 10.855123,25.0906058 C10.855123,25.5425906 11.1309107,25.9081015 11.4714306,25.9081015 L23.7976964,25.9081015 C24.1379861,25.9081015 24.414004,25.5425906 24.414004,25.0906058 C24.414004,24.6386209 24.1379861,24.27311 23.7976964,24.27311 L23.7976964,24.27311 Z" id="Fill-4"></path>
                    </g>
                </g>
            </g>
        </g>
    </g>
</svg>