<?xml version="1.0" encoding="UTF-8" standalone="no"?>
<svg width="34px" height="34px" viewBox="0 0 34 34" version="1.1" xmlns="http://www.w3.org/2000/svg" xmlns:xlink="http://www.w3.org/1999/xlink">
    <!-- Generator: Sketch 39.1 (31720) - http://www.bohemiancoding.com/sketch -->
    <title>成功</title>
    <desc>Created with Sketch.</desc>
    <defs></defs>
    <g id="任务中心" stroke="none" stroke-width="1" fill="none" fill-rule="evenodd">
        <g id="任务详情" transform="translate(-405.000000, -1077.000000)" fill="#C0C0C0">
            <g id="sec－tab" transform="translate(0.000000, 1055.000000)">
                <g id="成功" transform="translate(402.000000, 19.000000)">
                    <g id="Group" transform="translate(0.422033, 0.422033)">
                        <path d="M19.5392561,36.0785562 C10.4188313,36.0785562 3,28.6587122 3,19.5392561 C3,10.4188753 10.4196238,3 19.5392561,3 C28.6586242,3 36.0785121,10.4196678 36.0785121,19.5392561 C36.0785121,28.6597249 28.6596368,36.0785562 19.5392561,36.0785562 L19.5392561,36.0785562 L19.5392561,36.0785562 Z M12.4518993,17.8791835 L9.99119499,19.5195797 L19.2861862,29.0883298 C19.2861862,29.0883298 24.7536157,17.059888 32.1348921,11.3181712 L31.3148041,10.2243683 C31.3148481,10.2244123 19.8332638,18.4252044 17.9193288,22.2529862 L12.4518993,17.8791835 Z" id="Shape"></path>
                    </g>
                </g>
            </g>
        </g>
    </g>
</svg>