<?xml version="1.0" encoding="UTF-8" standalone="no"?>
<svg width="21px" height="28px" viewBox="0 0 21 28" version="1.1" xmlns="http://www.w3.org/2000/svg" xmlns:xlink="http://www.w3.org/1999/xlink">
    <!-- Generator: Sketch 39.1 (31720) - http://www.bohemiancoding.com/sketch -->
    <title>iconfont-lock</title>
    <desc>Created with Sketch.</desc>
    <defs></defs>
    <g id="我的任务" stroke="none" stroke-width="1" fill="none" fill-rule="evenodd">
        <g id="任务详情－进行中" transform="translate(-572.000000, -683.000000)" fill="#17A2FD">
            <g id="进度" transform="translate(32.000000, 522.000000)">
                <g id="2级任务" transform="translate(0.000000, 152.000000)">
                    <path d="M538.451767,26.6061191 C538.451767,23.0332176 540.391843,19.9079943 543.294987,18.1511668 L543.294987,14.5843188 C543.294987,11.4009516 545.945268,8.82027061 549.214658,8.82027061 C552.484006,8.82027061 555.134837,11.4009516 555.134837,14.5843188 L555.134837,18.8896068 C557.432134,20.7154351 558.90165,23.4935763 558.90165,26.6061191 C558.901607,32.1057419 554.323792,36.5630158 548.67656,36.5630158 C543.029286,36.5630158 538.451767,32.1057419 538.451767,26.6061191 Z M549.586721,10.9339937 C549.500331,10.9257499 549.251563,10.9163344 549.214616,10.9163344 C547.133871,10.9163344 545.447718,12.5579768 545.447718,14.5843188 L545.447718,17.1643323 C546.46324,16.8347654 547.546554,16.649392 548.676518,16.649392 C550.216791,16.649392 551.671732,16.9910457 552.981386,17.5846986 L552.981386,14.5843188 C552.981428,12.6802609 551.492719,11.1158725 549.586721,10.9339937 Z M548.67656,18.2214399 C543.921427,18.2214399 540.066145,21.9754738 540.066145,26.6061191 C540.066145,31.2373581 543.921384,34.9915617 548.67656,34.9915617 C553.431736,34.9915617 557.286932,31.2373157 557.286932,26.6061191 C557.286932,21.9755162 553.431736,18.2214399 548.67656,18.2214399 L548.67656,18.2214399 Z M548.67656,34.4670368 C544.218567,34.4670368 540.604243,30.9477413 540.604243,26.6061191 C540.604243,22.2650906 544.218567,18.7460071 548.67656,18.7460071 C553.135146,18.7460071 556.748961,22.2650482 556.748961,26.6061191 C556.748919,30.9476989 553.135104,34.4670368 548.67656,34.4670368 L548.67656,34.4670368 Z M550.291235,24.5100977 C550.291235,23.6420108 549.568065,22.9374561 548.676518,22.9374561 C547.785012,22.9374561 547.062393,23.6420108 547.062393,24.5100977 C547.062393,25.2546024 547.604686,25.8488915 548.318238,26.01183 L547.062393,30.7993493 L550.358391,30.7993493 L548.943448,26.0299815 C549.702971,25.9016069 550.291235,25.2860281 550.291235,24.5100977 L550.291235,24.5100977 Z" id="iconfont-lock" transform="translate(548.676708, 22.691643) rotate(-22.000000) translate(-548.676708, -22.691643) "></path>
                </g>
            </g>
        </g>
    </g>
</svg>