<?xml version="1.0" encoding="UTF-8" standalone="no"?>
<svg width="130px" height="104px" viewBox="0 0 130 104" version="1.1" xmlns="http://www.w3.org/2000/svg" xmlns:xlink="http://www.w3.org/1999/xlink">
    <!-- Generator: Sketch 39.1 (31720) - http://www.bohemiancoding.com/sketch -->
    <title>已达标</title>
    <desc>Created with Sketch.</desc>
    <defs></defs>
    <g id="我的任务" stroke="none" stroke-width="1" fill="none" fill-rule="evenodd" opacity="0.39558069">
        <g id="任务详情－已达标（待结算）" transform="translate(-482.000000, -566.000000)">
            <g id="已达标" transform="translate(547.000000, 618.000000) rotate(-15.000000) translate(-547.000000, -618.000000) translate(485.000000, 567.000000)">
                <path d="M62,102 C90.1665222,102 113,79.1665222 113,51 C113,22.8334778 90.1665222,1.13686838e-13 62,1.13686838e-13 C33.8334778,1.13686838e-13 11,22.8334778 11,51 C11,79.1665222 33.8334778,102 62,102 Z M62,96 C86.8528137,96 107,75.8528137 107,51 C107,26.1471863 86.8528137,6 62,6 C37.1471863,6 17,26.1471863 17,51 C17,75.8528137 37.1471863,96 62,96 Z" id="Combined-Shape" fill="#EC4D2D"></path>
                <path d="M62,92 C84.6436747,92 103,73.6436747 103,51 C103,28.3563253 84.6436747,10 62,10 C39.3563253,10 21,28.3563253 21,51 C21,73.6436747 39.3563253,92 62,92 Z M62,91 C84.09139,91 102,73.09139 102,51 C102,28.90861 84.09139,11 62,11 C39.90861,11 22,28.90861 22,51 C22,73.09139 39.90861,91 62,91 Z" id="Combined-Shape" fill="#EC4D2D"></path>
                <rect id="Combined-Shape" fill="#EC4D2D" x="-5.1159077e-13" y="29" width="124" height="44" rx="6"></rect>
                <rect id="Rectangle-5" fill="#FFFFFF" x="2" y="31" width="120" height="40" rx="4"></rect>
                <rect id="Rectangle-3-Copy" fill="#EC4D2D" x="3" y="32" width="118" height="38" rx="4"></rect>
                <text font-family=".PingFangSC-Regular, .PingFang SC" font-size="32" font-weight="normal" fill="#FFFFFF">
                    <tspan x="14.258819" y="62.0340742">已达标</tspan>
                </text>
                <g id="Group-2" transform="translate(45.000000, 18.000000)" fill="#EC4D2D">
                    <polygon id="Star" points="16.5 5.25 14.4427516 6.33155948 14.8356511 4.04077974 13.1713022 2.41844052 15.4713758 2.08422026 16.5 0 17.5286242 2.08422026 19.8286978 2.41844052 18.1643489 4.04077974 18.5572484 6.33155948"></polygon>
                    <polygon id="Star-Copy" transform="translate(31.174235, 9.174235) rotate(-330.000000) translate(-31.174235, -9.174235) " points="31.1742346 9.92423461 30.2925567 10.3877601 30.4609422 9.40599736 29.7476498 8.71070912 30.7333957 8.56747187 31.1742346 7.67423461 31.6150736 8.56747187 32.6008194 8.71070912 31.887527 9.40599736 32.0559125 10.3877601"></polygon>
                    <polygon id="Star-Copy-2" transform="translate(2.174235, 9.174235) scale(-1, 1) rotate(-330.000000) translate(-2.174235, -9.174235) " points="2.17423461 9.92423461 1.29255674 10.3877601 1.46094223 9.40599736 0.74764984 8.71070912 1.73339567 8.56747187 2.17423461 7.67423461 2.61507355 8.56747187 3.60081939 8.71070912 2.887527 9.40599736 3.05591249 10.3877601"></polygon>
                    <polygon id="Star-Copy" transform="translate(25.174235, 5.174235) rotate(-345.000000) translate(-25.174235, -5.174235) " points="25.1742346 6.42423461 23.7047715 7.1967771 23.985414 5.56050586 22.7965933 4.40169213 24.439503 4.16296337 25.1742346 2.67423461 25.9089662 4.16296337 27.5518759 4.40169213 26.3630553 5.56050586 26.6436977 7.1967771"></polygon>
                    <polygon id="Star-Copy-2" transform="translate(8.174235, 5.174235) scale(-1, 1) rotate(-345.000000) translate(-8.174235, -5.174235) " points="8.17423461 6.42423461 6.70477148 7.1967771 6.98541397 5.56050586 5.79659332 4.40169213 7.43950305 4.16296337 8.17423461 2.67423461 8.90896618 4.16296337 10.5518759 4.40169213 9.36305526 5.56050586 9.64369774 7.1967771"></polygon>
                </g>
                <g id="Group-2" transform="translate(62.000000, 79.500000) scale(1, -1) translate(-62.000000, -79.500000) translate(45.000000, 74.000000)" fill="#EC4D2D">
                    <polygon id="Star" points="16.5 5.25 14.4427516 6.33155948 14.8356511 4.04077974 13.1713022 2.41844052 15.4713758 2.08422026 16.5 -1.13686838e-13 17.5286242 2.08422026 19.8286978 2.41844052 18.1643489 4.04077974 18.5572484 6.33155948"></polygon>
                    <polygon id="Star-Copy" transform="translate(31.245853, 9.050188) rotate(-330.000000) translate(-31.245853, -9.050188) " points="31.2458532 9.94342477 30.3641754 10.4069503 30.5325609 9.42518751 29.8192685 8.72989928 30.8050143 8.58666202 31.2458532 7.69342477 31.6866922 8.58666202 32.672438 8.72989928 31.9591456 9.42518751 32.1275311 10.4069503"></polygon>
                    <polygon id="Star-Copy-2" transform="translate(2.102616, 9.050188) scale(-1, 1) rotate(-330.000000) translate(-2.102616, -9.050188) " points="2.10261599 9.94342477 1.22093811 10.4069503 1.3893236 9.42518751 0.676031213 8.72989928 1.66177705 8.58666202 2.10261599 7.69342477 2.54345493 8.58666202 3.52920076 8.72989928 2.81590837 9.42518751 2.98429387 10.4069503"></polygon>
                    <polygon id="Star-Copy" transform="translate(25.236022, 4.943640) rotate(-345.000000) translate(-25.236022, -4.943640) " points="25.2360222 6.4323691 23.766559 7.20491159 24.0472015 5.56864034 22.8583809 4.40982661 24.5012906 4.17109786 25.2360222 2.6823691 25.9707537 4.17109786 27.6136635 4.40982661 26.4248428 5.56864034 26.7054853 7.20491159"></polygon>
                    <polygon id="Star-Copy-2" transform="translate(8.112447, 4.943640) scale(-1, 1) rotate(-345.000000) translate(-8.112447, -4.943640) " points="8.11244707 6.4323691 6.64298393 7.20491159 6.92362642 5.56864034 5.73480577 4.40982661 7.3777155 4.17109786 8.11244707 2.6823691 8.84717863 4.17109786 10.4900884 4.40982661 9.30126771 5.56864034 9.5819102 7.20491159"></polygon>
                </g>
            </g>
        </g>
    </g>
</svg>