<?xml version="1.0" encoding="UTF-8" standalone="no"?>
<svg width="11px" height="20px" viewBox="0 0 11 20" version="1.1" xmlns="http://www.w3.org/2000/svg" xmlns:xlink="http://www.w3.org/1999/xlink">
    <!-- Generator: Sketch 39.1 (31720) - http://www.bohemiancoding.com/sketch -->
    <title>Imported Layers Copy 14</title>
    <desc>Created with Sketch.</desc>
    <defs></defs>
    <g id="我的任务" stroke="none" stroke-width="1" fill="none" fill-rule="evenodd">
        <g id="无级别任务详情－进行中" transform="translate(-597.000000, -1075.000000)" fill="#17A2FD">
            <g id="订单列表" transform="translate(8.000000, 980.000000)">
                <g id="订单" transform="translate(18.000000, 85.000000)">
                    <g id="箭头icon" transform="translate(564.000000, 6.000000)">
                        <path d="M17.9354784,14.3359112 C17.8885816,14.4699112 17.819733,14.5989112 17.7119701,14.7069112 C17.6730556,14.7449112 17.6241632,14.7629112 17.5812576,14.7939112 L8.65389404,23.7219112 C8.28171268,24.0939112 7.67404929,24.0889112 7.2958811,23.7109112 C6.91871072,23.3339112 6.91372169,22.7259112 7.28590305,22.3539112 L15.6365351,14.0029112 L7.27592499,5.64491117 C6.90374364,5.27291117 6.90873266,4.66591117 7.28690085,4.28691117 C7.66506904,3.90891117 8.27373024,3.90391117 8.6459116,4.27491117 L17.5263783,13.1529112 C17.594229,13.1939112 17.6650732,13.2259112 17.7229459,13.2849112 C17.927496,13.4889112 18.0133072,13.7599112 17.9983402,14.0249112 C17.9873643,14.1419112 17.9743928,14.2419112 17.9354784,14.3359112 Z" id="Imported-Layers-Copy-14" transform="translate(12.500000, 13.998847) scale(1, -1) translate(-12.500000, -13.998847) "></path>
                    </g>
                </g>
            </g>
        </g>
    </g>
</svg>