<?xml version="1.0" encoding="UTF-8" standalone="no"?>
<svg width="40px" height="44px" viewBox="0 0 40 44" version="1.1" xmlns="http://www.w3.org/2000/svg" xmlns:xlink="http://www.w3.org/1999/xlink">
    <!-- Generator: Sketch 39.1 (31720) - http://www.bohemiancoding.com/sketch -->
    <title>日历</title>
    <desc>Created with Sketch.</desc>
    <defs></defs>
    <g id="订单列表" stroke="none" stroke-width="1" fill="none" fill-rule="evenodd">
        <g transform="translate(-572.000000, -128.000000)" id="日历" fill="#FFFFFF">
            <g transform="translate(568.000000, 124.000000)">
                <path d="M42,21 L42,42.0098214 C42,44.2135362 40.2147544,46 38.0098214,46 L9.99017859,46 C7.7864638,46 6,44.2147544 6,42.0098214 L6,13.9901786 C6,11.7864638 7.7852456,10 9.99017859,10 L12,10 L12,8 L9.99922047,8 C6.68662393,8 4,10.6859425 4,13.9992205 L4,42.0007795 C4,45.3133761 6.68594249,48 9.99922047,48 L38.0007795,48 C41.3133761,48 44,45.3140575 44,42.0007795 L44,13.9992205 C44,10.6866239 41.3140575,8 38.0007795,8 L36,8 L36,10 L38.0098214,10 C40.2135362,10 42,11.7852456 42,13.9901786 L42,19 L6,19 L6,21 L42,21 Z M30,8 L18,8 L18,10 L30,10 L30,8 Z M13.5,31 C14.8807119,31 16,29.8807119 16,28.5 C16,27.1192881 14.8807119,26 13.5,26 C12.1192881,26 11,27.1192881 11,28.5 C11,29.8807119 12.1192881,31 13.5,31 Z M13.5,41 C14.8807119,41 16,39.8807119 16,38.5 C16,37.1192881 14.8807119,36 13.5,36 C12.1192881,36 11,37.1192881 11,38.5 C11,39.8807119 12.1192881,41 13.5,41 Z M24.5,31 C25.8807119,31 27,29.8807119 27,28.5 C27,27.1192881 25.8807119,26 24.5,26 C23.1192881,26 22,27.1192881 22,28.5 C22,29.8807119 23.1192881,31 24.5,31 Z M24.5,41 C25.8807119,41 27,39.8807119 27,38.5 C27,37.1192881 25.8807119,36 24.5,36 C23.1192881,36 22,37.1192881 22,38.5 C22,39.8807119 23.1192881,41 24.5,41 Z M35.5,31 C36.8807119,31 38,29.8807119 38,28.5 C38,27.1192881 36.8807119,26 35.5,26 C34.1192881,26 33,27.1192881 33,28.5 C33,29.8807119 34.1192881,31 35.5,31 Z M14,4.99539757 C14,4.44565467 14.4438648,4 15,4 C15.5522847,4 16,4.4556644 16,4.99539757 L16,13.0046024 C16,13.5543453 15.5561352,14 15,14 C14.4477153,14 14,13.5443356 14,13.0046024 L14,4.99539757 Z M32,4.99539757 C32,4.44565467 32.4438648,4 33,4 C33.5522847,4 34,4.4556644 34,4.99539757 L34,13.0046024 C34,13.5543453 33.5561352,14 33,14 C32.4477153,14 32,13.5443356 32,13.0046024 L32,4.99539757 Z" id="Combined-Shape"></path>
            </g>
        </g>
    </g>
</svg>