<?xml version="1.0" encoding="UTF-8" standalone="no"?>
<svg width="40px" height="40px" viewBox="0 0 40 40" version="1.1" xmlns="http://www.w3.org/2000/svg" xmlns:xlink="http://www.w3.org/1999/xlink">
    <!-- Generator: Sketch 39.1 (31720) - http://www.bohemiancoding.com/sketch -->
    <title>订单完成icon</title>
    <desc>Created with Sketch.</desc>
    <defs>
        <linearGradient x1="50%" y1="0%" x2="50%" y2="100%" id="linearGradient-1">
            <stop stop-color="#FFFFFF" offset="0%"></stop>
            <stop stop-color="#FFFFFF" offset="100%"></stop>
        </linearGradient>
    </defs>
    <g id="订单列表" stroke="none" stroke-width="1" fill="none" fill-rule="evenodd">
        <g id="订单详情有退货" transform="translate(-22.000000, -784.000000)">
            <g id="订单完成" transform="translate(22.000000, 783.000000)">
                <g id="订单完成icon" transform="translate(0.000000, 1.000000)">
                    <path d="M20,0.754716981 C9.3709434,0.754716981 0.754716981,9.3709434 0.754716981,20 C0.754716981,30.6286792 9.3709434,39.245283 20,39.245283 C30.6290566,39.245283 39.245283,30.6286792 39.245283,20 C39.245283,9.3709434 30.6290566,0.754716981 20,0.754716981" id="Fill-1" fill="#17A2FD"></path>
                    <path d="M29.8510189,17.9219623 C30.1612075,17.6030943 30.2661132,17.142717 30.1246038,16.7204528 C29.9830943,16.298566 29.6223396,15.9947925 29.1830943,15.9276226 L23.7649811,15.097434 L23.5661132,15.0668679 L23.4808302,14.8846038 L21.0698868,9.73781132 C20.8736604,9.31743396 20.4638491,9.05667925 20.0000755,9.05667925 C19.5366792,9.05667925 19.1268679,9.31743396 18.9306415,9.7370566 L16.5196981,14.8846038 L16.4344151,15.0668679 L16.2351698,15.097434 L10.817434,15.9276226 C10.3781887,15.9947925 10.017434,16.298566 9.87592453,16.7204528 C9.73441509,17.1423396 9.83932075,17.6030943 10.1495094,17.9219623 L14.1189434,21.9989434 L14.2517736,22.1351698 L14.2212075,22.322717 L13.2864906,28.0623396 C13.2310189,28.4046038 13.328,28.7521509 13.5521509,29.0155472 C13.7781887,29.2815849 14.1064906,29.4340377 14.453283,29.4340377 C14.6517736,29.4340377 14.8498868,29.3823396 15.0261132,29.2849811 L19.817434,26.6298868 L20.0000755,26.5287547 L20.1830943,26.6298868 L24.9725283,29.2842264 C25.1498868,29.3819623 25.3487547,29.4340377 25.5472453,29.4340377 C25.8940377,29.4340377 26.2223396,29.2815849 26.448,29.0159245 C26.6725283,28.7521509 26.7695094,28.4038491 26.7140377,28.0593208 L25.7793208,22.322717 L25.7487547,22.1351698 L25.8815849,21.9989434 L29.8510189,17.9219623 Z" id="Fill-3" fill="url(#linearGradient-1)"></path>
                    <path d="M29.578717,17.6586415 L25.6089057,21.7356226 L25.3436226,22.0080755 L25.4047547,22.3835472 L26.3394717,28.1193962 C26.3772075,28.3544906 26.3115472,28.5918491 26.158717,28.7714717 C26.0047547,28.9526038 25.7809811,29.0567547 25.5447547,29.0567547 C25.4100377,29.0567547 25.2741887,29.0209057 25.1530566,28.9541132 L20.3636226,26.2997736 L19.9979623,26.0975094 L19.6326792,26.2997736 L14.8413585,28.9548679 C14.7209811,29.021283 14.5858868,29.0567547 14.4511698,29.0567547 C14.2153208,29.0567547 13.9915472,28.9526038 13.8372075,28.7710943 C13.6847547,28.5918491 13.618717,28.3556226 13.6564528,28.1227925 L14.5911698,22.3835472 L14.6523019,22.0080755 L14.3870189,21.7356226 L10.4175849,17.6590189 C10.2062642,17.4416604 10.1349434,17.1280755 10.2311698,16.8405283 C10.3273962,16.5533585 10.5730566,16.346566 10.8723019,16.3005283 L16.2900377,15.4703396 L16.6881509,15.4095849 L16.8590943,15.0446792 L19.2700377,9.89675472 C19.4055094,9.6069434 19.6775849,9.43411321 19.9979623,9.43411321 C20.3183396,9.43411321 20.5904151,9.60732075 20.7262642,9.89788679 L23.1372075,15.0446792 L23.3077736,15.4095849 L23.7058868,15.4703396 L29.124,16.3005283 C29.4228679,16.346566 29.6685283,16.5533585 29.7647547,16.8401509 C29.8613585,17.1280755 29.7900377,17.4416604 29.578717,17.6586415 M30.4798491,16.6001509 C30.293434,16.0435472 29.8175849,15.6431698 29.2379623,15.5544906 L23.8202264,14.7243019 L21.409283,9.57750943 C21.1504151,9.02354717 20.6096604,8.67939623 19.9979623,8.67939623 C19.3862642,8.67939623 18.8458868,9.02354717 18.5870189,9.57713208 L16.1760755,14.7243019 L10.7579623,15.5544906 C10.1783396,15.6431698 9.70286792,16.0435472 9.51607547,16.6001509 C9.32928302,17.1571321 9.46777358,17.7643019 9.87720755,18.185434 L13.8466415,22.2620377 L12.9123019,28.0016604 C12.838717,28.4533585 12.9666415,28.9126038 13.2628679,29.2601509 C13.5609811,29.6110943 13.9941887,29.8114717 14.4511698,29.8114717 C14.7141887,29.8114717 14.9753208,29.7431698 15.2062642,29.6152453 L19.9979623,26.9601509 L24.7877736,29.6141132 C25.0209811,29.7431698 25.2817358,29.8114717 25.5447547,29.8114717 C26.0017358,29.8114717 26.4353208,29.6110943 26.733434,29.2601509 C27.029283,28.9126038 27.1572075,28.4533585 27.084,27.9993962 L26.149283,22.2620377 L30.1190943,18.185434 C30.5285283,17.7643019 30.6666415,17.1571321 30.4798491,16.6001509" id="Fill-5" fill="#7ECCFF"></path>
                    <path d="M20,36.2264151 C11.0384906,36.2264151 3.77358491,28.9615094 3.77358491,20 C3.77358491,11.0384906 11.0384906,3.77358491 20,3.77358491 C28.9615094,3.77358491 36.2264151,11.0384906 36.2264151,20 C36.2264151,28.9615094 28.9615094,36.2264151 20,36.2264151 M20,3.01886792 C10.6215094,3.01886792 3.01886792,10.6215094 3.01886792,20 C3.01886792,29.3784906 10.6215094,36.9811321 20,36.9811321 C29.3784906,36.9811321 36.9811321,29.3784906 36.9811321,20 C36.9811321,10.6215094 29.3784906,3.01886792 20,3.01886792" id="Fill-7" fill="#7ECCFF"></path>
                    <path d="M13.6361887,23.5553208 L13.8467547,22.2621132 L9.8769434,18.1855094 C9.78184906,18.0873962 9.70335849,17.9790943 9.63807547,17.864 C9.59430189,17.944 9.546,18.0209811 9.51618868,18.1096604 C9.32939623,18.6666415 9.46788679,19.2738113 9.8769434,19.6949434 L13.6361887,23.5553208 Z M13.8369434,28.0160755 C13.7810943,27.9507925 13.7414717,27.8756981 13.7097736,27.7975849 L13.656566,28.1228679 C13.6188302,28.3553208 13.6844906,28.5919245 13.8369434,28.7707925 C13.9916604,28.9526792 14.215434,29.0564528 14.451283,29.0564528 C14.586,29.0564528 14.7210943,29.0213585 14.8414717,28.954566 L19.6327925,26.2998491 L19.9980755,26.0975849 L20.3633585,26.2998491 L25.1531698,28.9538113 C25.2743019,29.0209811 25.4101509,29.0564528 25.5448679,29.0564528 C25.7810943,29.0564528 26.0044906,28.9526792 26.1588302,28.7715472 C26.3116604,28.5919245 26.3773208,28.354566 26.3395849,28.1194717 L26.2867547,27.7964528 C26.2550566,27.8753208 26.2146792,27.9507925 26.1588302,28.0168302 C26.0044906,28.1979623 25.7810943,28.3017358 25.5448679,28.3017358 C25.4101509,28.3017358 25.2743019,28.2662642 25.1531698,28.1990943 L20.3633585,25.5451321 L19.9980755,25.3428679 L19.6327925,25.5451321 L14.8414717,28.1998491 C14.7210943,28.2666415 14.586,28.3017358 14.451283,28.3017358 C14.215434,28.3017358 13.9916604,28.1979623 13.8369434,28.0160755 L13.8369434,28.0160755 Z M38.4810943,19.6224906 C38.2792075,29.6598491 30.0856226,37.7356981 19.9999623,37.7356981 C9.91467925,37.7356981 1.72071698,29.6598491 1.51883019,19.6224906 C1.51656604,19.7485283 1.50939623,19.873434 1.50939623,19.9998491 C1.50939623,30.2119245 9.78788679,38.4904151 19.9999623,38.4904151 C30.2120377,38.4904151 38.4905283,30.2119245 38.4905283,19.9998491 C38.4905283,19.873434 38.4837358,19.7485283 38.4810943,19.6224906 L38.4810943,19.6224906 Z M14.3871321,21.7353208 L14.5471321,21.8998491 L14.591283,21.6289057 L14.6524151,21.253434 L14.3871321,20.9806038 L10.4176981,16.9043774 C10.3656226,16.8504151 10.3222264,16.7907925 10.2875094,16.7273962 C10.2678868,16.7647547 10.2448679,16.7998491 10.231283,16.8406038 C10.1346792,17.1277736 10.2063774,17.4417358 10.4176981,17.6590943 L14.3871321,21.7353208 Z M26.3599623,23.5553208 L30.1188302,19.6949434 C30.5286415,19.2738113 30.6667547,18.6666415 30.4799623,18.1096604 C30.4501509,18.0209811 30.4018491,17.944 30.3580755,17.864 C30.2931698,17.9790943 30.2143019,18.0873962 30.1188302,18.1855094 L26.1493962,22.2621132 L26.3599623,23.5553208 Z M26.7331698,29.2602264 C26.4350566,29.6111698 26.0018491,29.8111698 25.5448679,29.8111698 C25.2818491,29.8111698 25.020717,29.7432453 24.7878868,29.6141887 L19.9980755,26.9602264 L15.2063774,29.6153208 C14.9750566,29.7432453 14.7143019,29.8111698 14.451283,29.8111698 C13.9943019,29.8111698 13.5610943,29.6111698 13.2629811,29.2602264 C13.1573208,29.1364528 13.0814717,28.9949434 13.0199623,28.8481509 L12.9120377,29.5107925 C12.8388302,29.9628679 12.9667547,30.4221132 13.2629811,30.7696604 C13.5610943,31.1206038 13.9943019,31.3206038 14.451283,31.3206038 C14.7143019,31.3206038 14.9750566,31.2526792 15.2063774,31.1247547 L19.9980755,28.4696604 L24.7878868,31.1236226 C25.020717,31.2526792 25.2818491,31.3206038 25.5448679,31.3206038 C26.0018491,31.3206038 26.4350566,31.1206038 26.7331698,30.7696604 C27.0293962,30.4221132 27.1573208,29.9628679 27.0841132,29.5089057 L26.9761887,28.8473962 C26.9150566,28.994566 26.8388302,29.1360755 26.7331698,29.2602264 L26.7331698,29.2602264 Z M25.4490189,21.8998491 L25.6090189,21.7353208 L29.5788302,17.658717 C29.7897736,17.4417358 29.8614717,17.1277736 29.7648679,16.8402264 C29.751283,16.7994717 29.7282642,16.7643774 29.7086415,16.7273962 C29.6739245,16.7907925 29.6309057,16.8504151 29.5788302,16.904 L25.6090189,20.9806038 L25.3437358,21.253434 L25.4048679,21.6289057 L25.4490189,21.8998491 Z" id="Fill-9" fill-opacity="0.200000003" fill="#FFFFFF"></path>
                    <path d="M20,38.490566 C9.78792453,38.490566 1.50943396,30.2120755 1.50943396,20 C1.50943396,9.78792453 9.78792453,1.50943396 20,1.50943396 C30.2120755,1.50943396 38.490566,9.78792453 38.490566,20 C38.490566,30.2120755 30.2120755,38.490566 20,38.490566 M20,0 C8.95433962,0 0,8.95433962 0,20 C0,31.0456604 8.95433962,40 20,40 C31.0456604,40 40,31.0456604 40,20 C40,8.95433962 31.0456604,0 20,0" id="Fill-11" fill="#7ECCFF"></path>
                </g>
            </g>
        </g>
    </g>
</svg>