<?xml version="1.0" encoding="UTF-8" standalone="no"?>
<svg width="40px" height="40px" viewBox="0 0 40 40" version="1.1" xmlns="http://www.w3.org/2000/svg" xmlns:xlink="http://www.w3.org/1999/xlink">
    <!-- Generator: Sketch 39.1 (31720) - http://www.bohemiancoding.com/sketch -->
    <title>货物发出icon</title>
    <desc>Created with Sketch.</desc>
    <defs>
        <filter x="-50%" y="-50%" width="200%" height="200%" filterUnits="objectBoundingBox" id="filter-1">
            <feOffset dx="0" dy="1" in="SourceAlpha" result="shadowOffsetOuter1"></feOffset>
            <feColorMatrix values="0 0 0 0 1   0 0 0 0 1   0 0 0 0 1  0 0 0 0.2 0" type="matrix" in="shadowOffsetOuter1" result="shadowMatrixOuter1"></feColorMatrix>
            <feMerge>
                <feMergeNode in="shadowMatrixOuter1"></feMergeNode>
                <feMergeNode in="SourceGraphic"></feMergeNode>
            </feMerge>
        </filter>
        <path d="M17.3568782,9.93632768 C17.7326025,9.79439222 18,9.43077406 18,9.00460243 L18,0.995397568 C18,0.455664396 17.5552407,0 17.0066023,0 L0.993397683,0 C0.444946289,0 0,0.445654671 0,0.995397568 L0,9.00460243 C0,9.42319686 0.267518419,9.79122472 0.643537817,9.93534014 L1.2360929,5.96903992 C1.48106817,4.32928445 3.03080211,3 4.67780408,3 L13.3224644,3 C14.9782938,3 16.5192636,4.32970763 16.7641756,5.96903992 L17.3568782,9.93632768 Z" id="path-2"></path>
        <mask id="mask-3" maskContentUnits="userSpaceOnUse" maskUnits="objectBoundingBox" x="0" y="0" width="18" height="9.93632768" fill="white">
            <use xlink:href="#path-2"></use>
        </mask>
        <linearGradient x1="50%" y1="0%" x2="50%" y2="100%" id="linearGradient-4">
            <stop stop-color="#FFFFFF" offset="0%"></stop>
            <stop stop-color="#7ECCFF" offset="100%"></stop>
        </linearGradient>
    </defs>
    <g id="订单列表" stroke="none" stroke-width="1" fill="none" fill-rule="evenodd">
        <g id="货物发出icon">
            <path d="M0.754716981,20 C0.754716981,30.6286792 9.3709434,39.245283 20,39.245283 C30.6290566,39.245283 39.245283,30.6286792 39.245283,20 C39.245283,9.3709434 30.6290566,0.754716981 20,0.754716981 C9.3709434,0.754716981 0.754716981,9.3709434 0.754716981,20 Z" id="Fill-1" fill="#17A2FD"></path>
            <path d="M20,36.2264151 C11.0384906,36.2264151 3.77358491,28.9615094 3.77358491,20 C3.77358491,11.0384906 11.0384906,3.77358491 20,3.77358491 C28.9615094,3.77358491 36.2264151,11.0384906 36.2264151,20 C36.2264151,28.9615094 28.9615094,36.2264151 20,36.2264151 M20,3.01886792 C10.6215094,3.01886792 3.01886792,10.6215094 3.01886792,20 C3.01886792,29.3784906 10.6215094,36.9811321 20,36.9811321 C29.3784906,36.9811321 36.9811321,29.3784906 36.9811321,20 C36.9811321,10.6215094 29.3784906,3.01886792 20,3.01886792" id="Fill-7" fill="#7ECCFF"></path>
            <path d="M38.4810943,19.6224906 C38.2792075,29.6598491 30.0856226,37.7356981 19.9999623,37.7356981 C9.91467925,37.7356981 1.72071698,29.6598491 1.51883019,19.6224906 C1.51656604,19.7485283 1.50939623,19.873434 1.50939623,19.9998491 C1.50939623,30.2119245 9.78788679,38.4904151 19.9999623,38.4904151 C30.2120377,38.4904151 38.4905283,30.2119245 38.4905283,19.9998491 C38.4905283,19.873434 38.4837358,19.7485283 38.4810943,19.6224906 L38.4810943,19.6224906 Z" id="Fill-9" fill-opacity="0.200000003" fill="#FFFFFF"></path>
            <path d="M20,38.490566 C9.78792453,38.490566 1.50943396,30.2120755 1.50943396,20 C1.50943396,9.78792453 9.78792453,1.50943396 20,1.50943396 C30.2120755,1.50943396 38.490566,9.78792453 38.490566,20 C38.490566,30.2120755 30.2120755,38.490566 20,38.490566 M20,0 C8.95433962,0 0,8.95433962 0,20 C0,31.0456604 8.95433962,40 20,40 C31.0456604,40 40,31.0456604 40,20 C40,8.95433962 31.0456604,0 20,0" id="Fill-11" fill="#7ECCFF"></path>
            <g id="Group-2" filter="url(#filter-1)" transform="translate(11.000000, 10.000000)">
                <use id="Combined-Shape" stroke="#7ECCFF" mask="url(#mask-3)" stroke-width="2" fill="#FFFFFF" xlink:href="#path-2"></use>
                <rect id="Rectangle-6" fill="#7ECCFF" x="3" y="18" width="2" height="4" rx="1"></rect>
                <rect id="Rectangle-6-Copy" fill="#7ECCFF" x="13" y="18" width="2" height="4" rx="1"></rect>
                <path d="M1.62850252,6.97197986 C1.83367491,5.33060071 3.34237885,4 5.00335124,4 L12.9966488,4 C14.6553538,4 16.1670789,5.33663106 16.3714975,6.97197986 L17.6285025,17.0280201 C17.8336749,18.6693993 16.6470745,20 15.0074602,20 L2.99253976,20 C1.33980569,20 0.167078882,18.6633689 0.371497482,17.0280201 L1.62850252,6.97197986 Z" id="Rectangle-4" fill="#7ECCFF"></path>
                <path d="M2.71769074,6.97616485 C2.87360584,5.88475914 3.90195036,5 5.0085302,5 L12.9914698,5 C14.1007504,5 15.1266262,5.88638364 15.2823093,6.97616485 L16.7176907,17.0238352 C16.8736058,18.1152409 16.1054862,19 15.0059397,19 L2.99406028,19 C1.8927712,19 1.12662623,18.1136164 1.28230926,17.0238352 L2.71769074,6.97616485 Z" id="Rectangle-20" fill="#FFFFFF"></path>
                <rect id="Rectangle-8" fill="#7ECCFF" x="2" y="15" width="4" height="2" rx="1"></rect>
                <rect id="Rectangle-8-Copy" fill="#7ECCFF" x="12" y="15" width="4" height="2" rx="1"></rect>
                <path d="M3.83487034,7.99077797 C3.92606893,7.44358641 4.4556644,7 4.99539757,7 L13.0046024,7 C13.5543453,7 14.0751625,7.45097518 14.1651297,7.99077797 L14.8348703,12.009222 C14.9260689,12.5564136 14.544239,13 13.9975267,13 L4.00247329,13 C3.44882258,13 3.07516253,12.5490248 3.16512966,12.009222 L3.83487034,7.99077797 Z" id="Rectangle-7" fill="url(#linearGradient-4)"></path>
            </g>
        </g>
    </g>
</svg>