<?xml version="1.0" encoding="UTF-8" standalone="no"?>
<svg width="40px" height="40px" viewBox="0 0 40 40" version="1.1" xmlns="http://www.w3.org/2000/svg" xmlns:xlink="http://www.w3.org/1999/xlink">
    <!-- Generator: Sketch 39.1 (31720) - http://www.bohemiancoding.com/sketch -->
    <title>订单完成icon </title>
    <desc>Created with Sketch.</desc>
    <defs>
        <polygon id="path-1" points="0.0461425781 12.8037109 22.5161133 0.0803222656 17.2424316 18.4848633"></polygon>
        <mask id="mask-2" maskContentUnits="userSpaceOnUse" maskUnits="objectBoundingBox" x="0" y="0" width="22.4699707" height="18.404541" fill="white">
            <use xlink:href="#path-1"></use>
        </mask>
    </defs>
    <g id="订单列表" stroke="none" stroke-width="1" fill="none" fill-rule="evenodd">
        <g id="订单完成icon-">
            <path d="M20,0.754716981 C9.3709434,0.754716981 0.754716981,9.3709434 0.754716981,20 C0.754716981,30.6286792 9.3709434,39.245283 20,39.245283 C30.6290566,39.245283 39.245283,30.6286792 39.245283,20 C39.245283,9.3709434 30.6290566,0.754716981 20,0.754716981" id="Fill-1" fill="#17A2FD"></path>
            <path d="M20,36.2264151 C11.0384906,36.2264151 3.77358491,28.9615094 3.77358491,20 C3.77358491,11.0384906 11.0384906,3.77358491 20,3.77358491 C28.9615094,3.77358491 36.2264151,11.0384906 36.2264151,20 C36.2264151,28.9615094 28.9615094,36.2264151 20,36.2264151 M20,3.01886792 C10.6215094,3.01886792 3.01886792,10.6215094 3.01886792,20 C3.01886792,29.3784906 10.6215094,36.9811321 20,36.9811321 C29.3784906,36.9811321 36.9811321,29.3784906 36.9811321,20 C36.9811321,10.6215094 29.3784906,3.01886792 20,3.01886792" id="Fill-7" fill="#7ECCFF"></path>
            <path d="M38.4810943,19.6224906 C38.2792075,29.6598491 30.0856226,37.7356981 19.9999623,37.7356981 C9.91467925,37.7356981 1.72071698,29.6598491 1.51883019,19.6224906 C1.51656604,19.7485283 1.50939623,19.873434 1.50939623,19.9998491 C1.50939623,30.2119245 9.78788679,38.4904151 19.9999623,38.4904151 C30.2120377,38.4904151 38.4905283,30.2119245 38.4905283,19.9998491 C38.4905283,19.873434 38.4837358,19.7485283 38.4810943,19.6224906 L38.4810943,19.6224906 Z" id="Fill-9" fill-opacity="0.200000003" fill="#FFFFFF"></path>
            <path d="M20,38.490566 C9.78792453,38.490566 1.50943396,30.2120755 1.50943396,20 C1.50943396,9.78792453 9.78792453,1.50943396 20,1.50943396 C30.2120755,1.50943396 38.490566,9.78792453 38.490566,20 C38.490566,30.2120755 30.2120755,38.490566 20,38.490566 M20,0 C8.95433962,0 0,8.95433962 0,20 C0,31.0456604 8.95433962,40 20,40 C31.0456604,40 40,31.0456604 40,20 C40,8.95433962 31.0456604,0 20,0" id="Fill-11" fill="#7ECCFF"></path>
            <g id="Group-4" transform="translate(7.000000, 10.000000)">
                <path d="M0.0461425781,13.8037109 L22.5161133,1.08032227 L17.2424316,19.4848633 L0.0461425781,13.8037109 Z M6.8951416,16.0540161 L16.2445068,8.14624023 L10.3880005,17.2091675 L6.8951416,16.0540161 Z" id="Combined-Shape" fill-opacity="0.2" fill="#FFFFFF"></path>
                <use id="Rectangle-13" stroke="#7ECCFF" mask="url(#mask-2)" stroke-width="2" fill="#FFFFFF" xlink:href="#path-1"></use>
                <polygon id="Rectangle-15" fill="#7ECCFF" points="6.8951416 15.0540161 16.2445068 7.14624023 10.3880005 16.2091675"></polygon>
                <polygon id="Rectangle-16" fill="#17A2FD" points="7.51330566 15.4232788 14.2802124 9.37164307 9.64776611 16.1953125"></polygon>
                <polygon id="Rectangle-17" fill="#7ECCFF" points="9 16.5386963 12.6291504 17.8421631 9 22"></polygon>
            </g>
        </g>
    </g>
</svg>