<?xml version="1.0" encoding="UTF-8" standalone="no"?>
<svg width="520px" height="58px" viewBox="0 0 520 58" version="1.1" xmlns="http://www.w3.org/2000/svg" xmlns:xlink="http://www.w3.org/1999/xlink">
    <!-- Generator: Sketch 39.1 (31720) - http://www.bohemiancoding.com/sketch -->
    <title>search copy</title>
    <desc>Created with Sketch.</desc>
    <defs>
        <path d="M29.0014962,0 C12.9844121,0 0,12.9802207 0,29 L0,29 C0,45.0162577 12.9837387,58 29.0014962,58 L490.998504,58 C507.015588,58 520,45.0197793 520,29 L520,29 C520,12.9837423 507.016261,0 490.998504,0 L29.0014962,0 Z" id="path-1"></path>
        <filter x="-50%" y="-50%" width="200%" height="200%" filterUnits="objectBoundingBox" id="filter-2">
            <feOffset dx="0" dy="1" in="SourceAlpha" result="shadowOffsetInner1"></feOffset>
            <feComposite in="shadowOffsetInner1" in2="SourceAlpha" operator="arithmetic" k2="-1" k3="1" result="shadowInnerInner1"></feComposite>
            <feColorMatrix values="0 0 0 0 0   0 0 0 0 0.469159688   0 0 0 0 0.776307398  0 0 0 1 0" type="matrix" in="shadowInnerInner1"></feColorMatrix>
        </filter>
    </defs>
    <g id="订单列表" stroke="none" stroke-width="1" fill="none" fill-rule="evenodd">
        <g transform="translate(-24.000000, -120.000000)" id="search-copy">
            <g transform="translate(24.000000, 120.000000)">
                <g id="Field">
                    <use fill="#FFFFFF" fill-rule="evenodd" xlink:href="#path-1"></use>
                    <use fill="black" fill-opacity="1" filter="url(#filter-2)" xlink:href="#path-1"></use>
                </g>
                <path d="M36.1120182,35.0002866 C34.428956,36.2559342 32.336795,37 30.0696379,37 C24.5083304,37 20,32.5228475 20,27 C20,21.4771525 24.5083304,17 30.0696379,17 C35.6309453,17 40.1392758,21.4771525 40.1392758,27 C40.1392758,29.2511636 39.3902379,31.32859 38.1261669,32.9998927 L46.1844567,41 L44.1699113,43 L36.1120182,35.0002866 Z M30.0696379,35 C34.5186838,35 38.1253482,31.418278 38.1253482,27 C38.1253482,22.581722 34.5186838,19 30.0696379,19 C25.6205919,19 22.0139276,22.581722 22.0139276,27 C22.0139276,31.418278 25.6205919,35 30.0696379,35 Z" id="Search-Icon" fill="#C0C0C0"></path>
            </g>
        </g>
    </g>
</svg>