<?xml version="1.0" encoding="UTF-8" standalone="no"?>
<svg width="27px" height="26px" viewBox="0 0 27 26" version="1.1" xmlns="http://www.w3.org/2000/svg" xmlns:xlink="http://www.w3.org/1999/xlink">
    <!-- Generator: Sketch 39.1 (31720) - http://www.bohemiancoding.com/sketch -->
    <title>Search Icon</title>
    <desc>Created with Sketch.</desc>
    <defs></defs>
    <g id="订单列表" stroke="none" stroke-width="1" fill="none" fill-rule="evenodd">
        <g id="搜索订单" transform="translate(-100.000000, -137.000000)" fill="#C0C0C0">
            <g id="search-copy" transform="translate(80.000000, 120.000000)">
                <path d="M36.1120182,35.0002866 C34.428956,36.2559342 32.336795,37 30.0696379,37 C24.5083304,37 20,32.5228475 20,27 C20,21.4771525 24.5083304,17 30.0696379,17 C35.6309453,17 40.1392758,21.4771525 40.1392758,27 C40.1392758,29.2511636 39.3902379,31.32859 38.1261669,32.9998927 L46.1844567,41 L44.1699113,43 L36.1120182,35.0002866 Z M30.0696379,35 C34.5186838,35 38.1253482,31.418278 38.1253482,27 C38.1253482,22.581722 34.5186838,19 30.0696379,19 C25.6205919,19 22.0139276,22.581722 22.0139276,27 C22.0139276,31.418278 25.6205919,35 30.0696379,35 Z" id="Search-Icon"></path>
            </g>
        </g>
    </g>
</svg>