<?xml version="1.0" encoding="UTF-8" standalone="no"?>
<svg width="30px" height="30px" viewBox="0 0 30 30" version="1.1" xmlns="http://www.w3.org/2000/svg" xmlns:xlink="http://www.w3.org/1999/xlink">
    <!-- Generator: Sketch 39.1 (31720) - http://www.bohemiancoding.com/sketch -->
    <title>48_34 copy</title>
    <desc>Created with Sketch.</desc>
    <defs></defs>
    <g id="我的任务" stroke="none" stroke-width="1" fill="none" fill-rule="evenodd">
        <g id="我的任务－提交识别码－有误" transform="translate(-33.000000, -590.000000)" fill="#17A2FD">
            <g id="填写识别码" transform="translate(0.000000, 561.000000)">
                <g id="48_34-copy" transform="translate(24.000000, 20.000000)">
                    <path d="M38.7076048,37.2961106 C39.0974651,37.6859709 39.0974651,38.3177445 38.7076048,38.7076048 C38.3177445,39.0974651 37.6859709,39.0974651 37.2951109,38.7076048 L24.0038736,25.4163675 L10.7066385,38.7076048 C10.3157785,39.0974651 9.6840049,39.0974651 9.29314496,38.7076048 C8.90228501,38.3177445 8.90228501,37.6859709 9.29314496,37.2961106 L22.5843823,23.9968761 L9.29314496,10.7046392 C8.90328466,10.3147789 8.90328466,9.68300526 9.29314496,9.29314496 C9.68300526,8.90328466 10.3147789,8.90328466 10.7046392,9.29314496 L23.9958765,22.5843823 L37.2771174,9.29614388 C37.6719759,8.90128537 38.310747,8.90128537 38.7046058,9.29614388 C39.0984647,9.69000275 39.0984647,10.3287739 38.7046058,10.7226327 L25.4163675,24.0048733 L38.7076048,37.2961106 Z" id="Imported-Layers"></path>
                </g>
            </g>
        </g>
    </g>
</svg>